<?xml version="1.0" encoding="UTF-8"?>
<svg width="880px" height="110px" viewBox="0 0 880 110" version="1.1" xmlns="http://www.w3.org/2000/svg" xmlns:xlink="http://www.w3.org/1999/xlink">
    <!-- Generator: Sketch 54.1 (76490) - https://sketchapp.com -->
    <title>Untitled</title>
    <desc>Created with Sketch.</desc>
    <g id="Page-1" stroke="none" stroke-width="1" fill="none" fill-rule="evenodd">
        <g id="J_P_Morgan_Chase_Logo_2008_1">
            <path d="M688.303694,28 C685.201145,28 682.644494,29.0432471 680.592155,31.1221264 C678.54248,33.2036716 677.538081,35.549454 677.538081,38.204023 C677.538081,41.5728736 679.039122,45.3163793 682.042841,49.4741379 C677.056294,52.7950131 673.651783,55.5942685 671.888043,57.7744253 C670.129678,59.9599138 669.292055,62.6319983 669.292079,65.8462644 C669.292079,68.6580813 670.016286,71.0899089 671.429931,73.2327586 C672.840914,75.3782669 674.603481,77.0725903 676.850914,78.2586207 C679.098322,79.4446462 681.485069,80.0862118 683.951637,80.0862069 C688.980941,80.0862069 693.786857,77.5527167 698.305788,72.5474138 C702.105815,77.5527143 706.509399,80.0862118 711.514661,80.0862069 C713.823542,80.0862069 715.86447,79.3962907 717.62281,78.1063218 C719.378537,76.8190164 720.516167,75.0991823 721.058644,73.0043103 L719.2262,73.0043103 C717.919447,75.3044031 716.062936,76.5071815 713.652513,76.5071839 C711.880759,76.5071839 710.255576,75.9608112 708.689642,74.908046 C707.126322,73.8579442 704.944223,71.3659524 702.199733,67.4454023 C703.351486,65.918225 704.6384,63.5469294 706.017327,60.2873563 C707.658147,56.3401503 709.277564,53.6414171 710.827494,52.2155172 C712.380113,50.786954 714.169434,49.8053891 716.248477,49.2456897 L716.248477,47.4181034 L699.756474,47.4181034 L699.756474,49.2456897 C703.794327,49.7041092 705.788296,51.3424647 705.788271,54.2715517 C705.788271,55.4922258 705.337416,57.1987356 704.490289,59.3735632 C703.64585,61.5510542 702.513521,63.655064 701.054455,65.6939655 C696.997887,59.9530591 692.715317,54.026353 688.15099,47.875 C695.518566,44.1783268 699.145683,40.3837997 699.145659,36.4525862 C699.145659,33.9259483 698.09127,31.840977 695.862529,30.2844828 C693.631148,28.7279885 691.072225,28 688.303694,28 Z M758.394707,28.2284483 C753.90788,28.2284483 749.780311,29.2503736 746.025704,31.3505747 C742.271098,33.4507759 739.342974,36.6852209 737.24524,41.0215517 C735.150145,45.3552167 734.114813,49.9713925 734.114813,54.8807471 C734.114813,62.3567176 736.361806,68.3839434 740.910129,72.9281609 C745.455741,77.472376 751.380279,79.7054573 758.547411,79.7054598 C765.329728,79.7054598 770.904612,77.230986 775.268469,72.3189655 C776.422909,73.8354795 777.189091,75.587679 777.635377,77.5732759 L779.315118,77.5732759 L779.315118,60.1350575 L777.635377,60.1350575 C777.341428,63.0161716 776.356111,66.0343571 774.734006,69.1206897 C773.114565,72.2096905 770.94429,74.3769007 768.167746,75.6695402 C765.383187,76.9621749 762.659734,77.5732759 759.998096,77.5732759 C755.022251,77.5732759 750.822116,75.6074778 747.47639,71.6336207 C744.138677,67.6570977 742.513494,61.9573144 742.513519,54.5 C742.513519,46.6242439 744.034814,40.5300066 747.094631,36.3002874 C750.159798,32.0652365 754.263326,29.9798851 759.463633,29.9798851 C763.707282,29.9798851 767.53328,31.306408 770.916413,33.9396552 C774.29957,36.5729023 776.537058,41.2012619 777.635377,47.875 L779.315118,47.875 L778.857007,29.066092 L777.177266,29.066092 C776.95014,31.2862291 776.345434,33.4679089 775.268469,35.5387931 C773.782674,33.6917882 771.482198,32.0321109 768.473153,30.512931 C765.458781,28.9937488 762.098517,28.2284483 758.394707,28.2284483 Z M465.203542,28.3807471 C460.716715,28.3807471 456.58917,29.4026724 452.834539,31.5028736 C449.07727,33.6030747 446.151857,36.8375246 444.054075,41.1738506 C441.956316,45.5075156 440.923673,50.1210279 440.923648,55.033046 C440.923648,62.5063506 443.17069,68.5335764 447.718964,73.0804598 C452.261912,77.6246773 458.107411,79.8577562 465.279893,79.8577586 C472.056885,79.8577586 477.639758,77.4620953 482.000952,72.5474138 C483.160743,74.0692594 484.003277,75.8134687 484.444212,77.8017241 L486.123953,77.8017241 L486.123953,60.2873563 L484.444212,60.2873563 C484.150263,63.1711363 483.167609,66.1866535 481.542841,69.2729885 C479.923399,72.3619893 477.758451,74.5292044 474.97658,75.8218391 C472.192022,77.1144762 469.465857,77.801729 466.806931,77.8017241 C461.831086,77.8017241 457.628288,75.7571109 454.285225,71.7859195 C450.942161,67.8093941 449.322378,62.1122767 449.322353,54.6522989 C449.322353,46.7765427 450.84101,40.7584549 453.903465,36.5287356 C456.965945,32.2963506 461.077462,30.1321839 466.272468,30.1321839 C470.521443,30.1321839 474.347465,31.4587069 477.725248,34.091954 C481.105742,36.7251987 483.34323,41.3535657 484.444212,48.0272989 L486.123953,48.0272989 L485.665842,29.2945402 L483.986101,29.2945402 C483.761638,31.5146773 483.077916,33.6202077 482.000952,35.691092 C480.515157,33.844087 478.296359,32.1817463 475.281988,30.6652299 C472.27563,29.1460501 468.91004,28.3807471 465.203542,28.3807471 Z M101.997715,28.533046 C99.1891124,28.533046 95.2581396,28.6430813 90.2395278,28.8376437 L83.9786748,29.066092 L83.9786748,30.7413793 L84.8948972,30.7413793 C87.4362684,30.7413793 89.09349,30.986963 89.8577685,31.4267241 C90.6247224,31.8691535 91.0866524,32.635977 91.3084539,33.7873563 C91.5302555,34.9387356 91.6902084,37.5179179 91.6902133,41.4784483 L91.6902133,65.8462644 C91.6902133,70.0066888 91.5302579,72.7039015 91.3084539,73.841954 C91.0866499,74.9800066 90.6071602,75.816505 89.7814166,76.3548851 C88.9556706,76.8932603 87.4225275,77.1163793 85.2766565,77.1163793 L83.9786748,77.1163793 L83.9786748,78.7916667 L106.960586,78.7916667 L106.960586,77.1163793 L105.280845,77.1163793 C103.036103,77.1163793 101.514793,76.8704154 100.699733,76.2787356 C99.8846767,75.6897192 99.3570889,74.7526987 99.1726961,73.5373563 C98.9856353,72.3220115 98.9436454,69.7748169 98.9436405,65.8462644 L98.9436405,55.3376437 L104.440975,55.3376437 C110.165075,55.3376437 114.156753,54.8125903 116.428218,53.7385057 C118.70236,52.6617529 120.401566,51.0961207 121.620145,49.0172414 C122.836048,46.9356962 123.452589,44.4989171 123.452589,41.783046 C123.452589,38.6540673 122.565383,36.0706962 120.780274,34.0158046 C118.995168,31.960913 116.701171,30.5590033 113.908606,29.7514368 C111.116036,28.9438727 107.163304,28.533046 101.997715,28.533046 Z M54.7359101,29.066092 L54.7359101,30.7413793 L55.8811881,30.7413793 C58.4118701,30.7413793 60.0194593,30.9869606 60.7677075,31.4267241 C61.5186263,31.8664852 62.0622516,32.6413063 62.2947449,33.7873563 C62.5272357,34.9360698 62.6001548,37.5232496 62.6001523,41.4784483 L62.6001523,58.3836207 C62.6001523,63.924633 62.4585214,67.9350419 62.0656893,70.3390805 C61.6782029,72.7484483 60.4588649,74.8136207 58.5535034,76.5833333 C56.6481444,78.353046 54.3136855,79.2485608 51.5291318,79.2485632 C50.1609063,79.2485632 49.0232611,79.0003137 48.0932978,78.5632184 C47.1686779,78.1261207 46.7189642,77.5138769 46.7189642,76.7356322 C46.7189642,76.4424557 46.8308215,76.0247767 47.1007235,75.441092 C47.3973524,74.7827808 47.5588347,74.1476921 47.5588347,73.5373563 C47.5588347,72.513908 47.2194513,71.6545624 46.4899086,70.9482759 C45.7630388,70.2393235 44.8262002,69.8821863 43.7412414,69.8821839 C42.6803316,69.8821839 41.7984688,70.3116642 41.0689261,71.1005747 C40.3420564,71.8894828 40,72.8402102 40,73.9942529 C40,75.9078867 41.0257879,77.5553801 43.0540746,78.9439655 C45.0877048,80.3298851 47.9165426,81.0000024 51.6818355,81 C55.0329201,81 58.00797,80.449436 60.5386519,79.3247126 C63.0693339,78.197321 65.131599,76.6141732 66.6468012,74.5272989 C68.1620034,72.4377562 69.0614284,70.2560739 69.3954684,68.0545977 C69.7241626,65.8557824 69.8535796,62.6681675 69.8535796,58.4597701 L69.8535796,41.4784483 C69.8535796,37.3473432 69.9894835,34.735798 70.2353389,33.6350575 C70.4785214,32.5343169 71.0034338,31.750358 71.7623762,31.3505747 C72.5186409,30.9427939 74.1247005,30.7413793 76.5725438,30.7413793 L77.7941736,30.7413793 L77.7941736,29.066092 L54.7359101,29.066092 Z M130.171554,29.066092 L130.171554,30.7413793 L131.545887,30.7413793 C134.087259,30.7413793 135.67881,30.9869606 136.432407,31.4267241 C137.185998,31.8691511 137.726948,32.635977 137.959444,33.7873563 C138.194608,34.9387356 138.264847,37.5152496 138.264851,41.4784483 L138.264851,63.1048851 C138.264851,67.2146708 138.179723,70.0382914 137.883092,71.5574713 C137.589136,73.0739877 136.71033,74.4069828 135.363481,75.441092 C134.019307,76.4805304 132.320095,76.9964458 130.171554,77.1163793 L130.171554,78.7916667 L148.114242,78.7916667 L148.114242,77.1163793 C145.808035,76.9697923 144.044302,76.3762045 142.769612,75.2887931 C141.489573,74.2013793 140.722236,72.9258752 140.479056,71.4813218 C140.233203,70.036766 140.097291,67.3205172 140.097296,63.3333333 L140.097296,34.2442529 L159.948781,78.7916667 L161.704874,78.7916667 L181.327304,34.2442529 L181.327304,65.9224138 C181.327304,70.0828383 181.254385,72.7039015 181.021896,73.841954 C180.789403,74.9800066 180.244246,75.8138416 179.418507,76.3548851 C178.590091,76.8932603 177.114599,77.1163793 174.990099,77.1163793 L173.234006,77.1163793 L173.234006,78.7916667 L197.208492,78.7916667 L197.208492,77.1163793 L194.994288,77.1163793 C192.733508,77.1163793 191.209525,76.8677496 190.413176,76.2787356 C189.611481,75.6923851 189.081211,74.8235213 188.886139,73.6135057 C188.688386,72.4034902 188.580734,69.7614877 188.580731,65.8462644 L188.580731,41.4784483 C188.580731,37.3446773 188.700595,34.7384614 188.96249,33.6350575 C189.21636,32.5343169 189.72792,31.7530238 190.489528,31.3505747 C191.251138,30.9481232 192.920183,30.7413793 195.376047,30.7413793 L197.208492,30.7413793 L197.208492,29.066092 L181.785415,29.066092 L163.690023,70.262931 L145.365575,29.066092 L130.171554,29.066092 Z M688.456398,29.9037356 C690.329694,29.9037356 691.812068,30.5361584 692.961158,31.8074713 C694.102233,33.0814524 694.717226,34.6942972 694.717251,36.7571839 C694.717251,40.2166535 692.117818,43.451101 687.005712,46.4281609 C683.865732,42.1291445 682.348224,38.7187931 682.348248,36.2241379 C682.348248,34.4171109 682.905629,32.9519959 684.027989,31.7313218 C685.147686,30.5133112 686.599154,29.9037356 688.456398,29.9037356 Z M102.761234,30.2844828 C107.309513,30.2844828 110.585008,31.2512003 112.610625,33.1781609 C114.636238,35.1024557 115.664702,38.1195008 115.664699,42.2399425 C115.664699,44.939821 115.087103,47.2543834 113.908606,49.0933908 C112.727444,50.9324006 111.246599,52.0913949 109.480198,52.6724138 C107.711124,53.2481034 105.404917,53.5862093 102.532178,53.5862069 L98.9436405,53.5862069 L98.9436405,30.4367816 C99.8281763,30.3381699 101.093707,30.2844828 102.761234,30.2844828 Z M596.452399,39.7270115 C593.534219,39.7270115 591.1807,40.5772192 589.275324,42.3922414 C587.372635,44.2072635 586.373953,46.5191601 586.373953,49.2456897 C586.373953,51.0340583 586.871743,52.6937381 587.748286,54.2715517 C588.624806,55.8520337 589.776216,57.171702 591.336824,58.1551724 C592.897456,59.1439721 595.288039,60.26794 598.361196,61.5818966 C601.808489,63.0504376 604.165843,64.417321 605.461919,65.6939655 C606.760658,66.989266 607.37074,68.5750821 607.370716,70.4913793 C607.370716,72.389023 606.634293,74.1370312 605.156512,75.6695402 C603.676043,77.2020468 601.59204,77.9540206 598.895659,77.954023 C592.901659,77.954023 589.12262,73.934096 587.519231,65.9224138 L586.068545,65.9224138 L586.068545,78.2586207 L587.519231,78.2586207 C587.821193,76.6568169 588.265573,75.4094942 588.893564,74.5272989 C591.710179,77.7415673 595.218553,79.3247175 599.430122,79.3247126 C603.093863,79.3247126 606.0193,78.3256297 608.210586,76.2787356 C610.401897,74.2265074 611.493741,71.5559483 611.493717,68.283046 C611.493717,66.2148276 611.022632,64.3807693 610.119383,62.8002874 C609.208145,61.2224713 608.035356,60.0379663 606.530845,59.1451149 C605.028998,58.2522635 602.583075,57.0399623 599.277418,55.566092 C595.822111,54.0122635 593.502163,52.6092134 592.176695,51.3778736 C590.82716,50.1678604 590.115219,48.7122635 590.115194,46.9612069 C590.115194,45.5113218 590.647019,44.1486273 591.718583,42.9252874 C592.79286,41.7072767 594.459603,41.0976987 596.757807,41.0977011 C599.170916,41.0977011 601.343487,41.9555263 603.171363,43.6106322 C605.007229,45.2710722 606.267413,47.4988218 606.988957,50.387931 L608.210586,50.387931 L608.210586,40.4123563 L606.988957,40.4123563 C606.879401,41.6143768 606.406777,42.7314901 605.538271,43.762931 C604.025747,42.1104885 602.544887,41.0135542 601.109863,40.4885057 C599.669488,39.9607914 598.085181,39.7270139 596.452399,39.7270115 Z M220.724867,39.8031609 C214.813705,39.8031609 209.941303,41.5595492 205.988957,45.1336207 C202.036603,48.7050287 200.033513,53.4700772 200.033511,59.3735632 C200.033511,65.4289655 202.016375,70.2534105 205.912605,73.9181034 C209.808839,77.5881256 214.795381,79.4770139 220.87757,79.4770115 C227.122772,79.4770115 232.163143,77.5881232 235.99524,73.9181034 C239.824668,70.253413 241.721632,65.524156 241.72163,59.6020115 C241.72163,53.4906388 239.687616,48.670385 235.689832,45.1336207 C231.689376,41.5995271 226.689465,39.8031585 220.724867,39.8031609 Z M309.369383,39.8031609 C303.399449,39.8031609 298.720973,41.8534836 295.244288,45.9712644 C291.767627,50.0863793 289.976009,54.894454 289.976009,60.3635057 C289.976009,65.8911937 291.838995,70.4696773 295.473343,74.0704023 C299.105005,77.6711273 303.659412,79.4770066 309.140327,79.4770115 C311.868764,79.4770115 314.793078,78.8461166 317.997144,77.6494253 C320.348781,76.7698982 322.275145,76.3548851 323.723534,76.3548851 C324.081642,76.3548851 324.498853,76.3537446 324.945164,76.4310345 L324.945164,72.3951149 C324.945164,69.0902299 325.042112,67.0090649 325.250571,66.1508621 C325.456343,65.2953251 325.896471,64.6149294 326.548553,64.2471264 C327.197922,63.8793235 328.461918,63.714078 330.289794,63.7140805 L330.289794,62.4195402 L313.721439,62.4195402 L313.721439,63.7140805 L314.637662,63.7140805 C316.1582,63.7140805 317.198907,63.8576264 317.768088,64.0948276 C318.337295,64.3267044 318.714436,64.7805501 318.989718,65.4655172 C319.264976,66.1531453 319.447829,67.5226946 319.447829,69.5775862 C319.447829,71.3286404 319.116841,72.7720558 318.531607,73.9181034 C317.951724,75.0668169 316.920179,76.0122102 315.324829,76.8117816 C313.72679,77.6166798 311.930994,78.0301724 309.980198,78.0301724 C306.169495,78.0301724 302.930636,76.6697611 300.359863,73.841954 C297.786426,71.0194737 296.54227,66.153908 296.54227,59.3735632 C296.54227,52.5745624 297.91394,47.8776658 300.588919,45.2097701 C303.263921,42.5445402 306.377905,41.1738506 309.980198,41.1738506 C313.464897,41.1738506 316.3972,42.3191379 318.837014,44.6005747 C321.279517,46.8846773 322.796659,49.9809105 323.341775,53.8908046 L324.639756,53.8908046 L324.639756,41.0977011 L323.341775,41.0977011 C323.170746,42.6408711 322.750823,44.1029376 322.120145,45.4382184 C318.753015,41.6882406 314.505579,39.8031609 309.369383,39.8031609 Z M809.397753,39.8031609 C803.486604,39.8031609 798.614182,41.5595492 794.661843,45.1336207 C790.70948,48.7050287 788.706446,53.4700772 788.706398,59.3735632 C788.706398,65.4289655 790.612898,70.2534105 794.509139,73.9181034 C798.405381,77.5881256 803.394566,79.4770139 809.474105,79.4770115 C815.724648,79.4770115 820.759668,77.5881232 824.591775,73.9181034 C828.421193,70.253413 830.394492,65.524156 830.394516,59.6020115 C830.394516,53.4906388 828.360503,48.670385 824.362719,45.1336207 C820.362272,41.5995271 815.359698,39.8031585 809.397753,39.8031609 Z M560.948781,39.8793103 L549.801409,66.3793103 C548.999702,68.2849491 548.468318,69.3738859 548.350724,69.6537356 C547.166891,72.6521174 546.206763,74.5870755 545.373001,75.5172414 C544.539238,76.4500706 543.263002,77.080968 541.555407,77.3448276 L541.555407,78.6393678 L553.084539,78.6393678 L553.084539,77.3448276 C551.841922,77.3448276 550.816095,77.0253826 550.030465,76.4310345 C549.252824,75.8393522 548.885187,74.9906699 548.885187,73.841954 C548.885187,72.767867 549.629623,70.5092775 551.099391,66.9885057 L552.091965,64.5517241 L566.598819,64.5517241 L569.576542,71.6336207 C570.445048,73.6858489 570.874524,74.8756831 570.874524,75.2887931 C570.874524,76.0963571 570.528656,76.6922234 569.88195,76.9640805 C569.229893,77.2359327 567.981949,77.3448251 566.140708,77.3448276 L566.140708,78.6393678 L581.182026,78.6393678 L581.182026,77.3448276 C579.837867,77.2142331 578.872364,76.8746067 578.204303,76.3548851 C577.533555,75.8404951 576.996404,75.1235476 576.600914,74.2227011 L574.844821,70.262931 L562.094059,39.8793103 L560.948781,39.8793103 Z M261.038652,40.0316092 C258.892786,40.0316092 255.984916,40.1001437 252.334539,40.2600575 L246.913557,40.4885057 L246.913557,41.783046 L247.524372,41.783046 C249.49921,41.783046 250.822381,41.9776059 251.418317,42.316092 C252.008902,42.6545755 252.392567,43.2614877 252.563595,44.1436782 C252.737286,45.0258686 252.79265,46.9634902 252.79265,50.0071839 L252.79265,68.816092 C252.79265,72.011702 252.734623,74.0311872 252.563595,74.908046 C252.395254,75.7822414 251.975307,76.4013374 251.341965,76.8117816 C250.711311,77.2248916 249.549614,77.4209746 247.906131,77.420977 L246.684501,77.420977 L246.684501,78.7155172 L265.085301,78.7155172 L265.085301,77.420977 L263.252856,77.420977 C261.513182,77.420977 260.276282,77.1860542 259.664318,76.7356322 C259.047029,76.2878736 258.658013,75.6070953 258.51904,74.6795977 C258.377405,73.7600928 258.366337,71.8038153 258.366337,68.816092 L258.366337,60.4396552 L259.893374,60.4396552 C260.922231,60.4396552 261.618535,60.6288834 262.107578,60.9727011 C262.59127,61.3191823 263.486505,62.2070846 264.779893,63.7902299 C266.070643,65.3653826 267.318611,67.0208686 268.521135,68.7399425 C272.265064,74.1183752 275.102666,77.4335459 276.91984,78.7155172 L287.15099,78.7155172 L287.15099,77.420977 C284.908908,77.3463506 282.994395,76.7192594 281.348248,75.5172414 C279.707453,74.3098916 277.444383,71.7722126 274.552932,67.9022989 C271.004097,63.1208752 268.36308,60.3669343 266.765042,59.6020115 C270.313877,59.170243 273.030488,58.0972989 274.85834,56.3275862 C276.691566,54.5578736 277.607007,52.3602011 277.607007,49.8548851 C277.607007,47.7093744 276.880137,45.9152939 275.469155,44.3721264 C274.058172,42.8236297 272.253971,41.7011847 269.97182,41.0215517 C267.684294,40.3445846 264.686365,40.0316092 261.038652,40.0316092 Z M352.431835,40.0316092 L341.208111,66.4554598 C340.403741,68.3584351 339.959386,69.4500377 339.833778,69.7298851 C338.657959,72.7282693 337.616153,74.7393768 336.779703,75.6695402 C335.943277,76.6023695 334.743441,77.1571199 333.038462,77.420977 L333.038462,78.7155172 L344.567593,78.7155172 L344.567593,77.420977 C343.319625,77.420977 342.293823,77.177679 341.513519,76.5833333 C340.730527,75.9889877 340.368265,75.0668145 340.368241,73.9181034 C340.368241,72.844014 341.10999,70.585422 342.582445,67.0646552 L343.575019,64.6278736 L358.081874,64.6278736 L360.983244,71.7097701 C361.849087,73.7619983 362.357578,75.0279771 362.357578,75.441092 C362.357578,76.248656 362.017012,76.7683752 361.365004,77.0402299 C360.715634,77.3120821 359.467666,77.420977 357.623762,77.420977 L357.623762,78.7155172 L372.66508,78.7155172 L372.66508,77.420977 C371.326247,77.2877167 370.355442,77.0269031 369.687357,76.5071839 C369.019272,75.9927939 368.476795,75.2758489 368.083968,74.375 L366.327875,70.3390805 L353.577113,40.0316092 L352.431835,40.0316092 Z M495.057121,40.4123563 L495.057121,41.7068966 L495.82064,41.7068966 C497.776762,41.7068966 498.981973,41.9041223 499.561881,42.2399425 C500.139101,42.5784261 500.533443,43.18267 500.707159,44.0675287 C500.888864,44.9497192 501.012567,46.8900066 501.012567,49.9310345 L501.012567,68.6637931 C501.012567,71.862069 500.888864,73.9550377 500.707159,74.8318966 C500.533443,75.706092 500.118871,76.3251904 499.485529,76.7356322 C498.849524,77.1487422 497.701143,77.3448276 496.049695,77.3448276 L495.057121,77.3448276 L495.057121,78.6393678 L512.465347,78.6393678 L512.465347,77.3448276 L511.472772,77.3448276 C509.735761,77.3448276 508.504212,77.1099097 507.884235,76.6594828 C507.264257,76.2063925 506.888606,75.5336166 506.738957,74.6034483 C506.586644,73.670619 506.509901,71.6808358 506.509901,68.6637931 L506.509901,59.4497126 L526.51409,59.4497126 L526.51409,68.6637931 C526.51409,71.8673982 526.456062,73.8788859 526.285034,74.7557471 C526.116694,75.6326084 525.686069,76.3198588 525.063404,76.7356322 C524.435413,77.1487422 523.312662,77.3448276 521.703922,77.3448276 L520.405941,77.3448276 L520.405941,78.6393678 L537.737814,78.6393678 L537.737814,77.3448276 L536.897944,77.3448276 C535.187662,77.3448276 534.008423,77.1099097 533.385758,76.6594828 C532.765756,76.2090583 532.382091,75.5336141 532.24048,74.6034483 C532.096181,73.6732849 532.011424,71.6728383 532.011424,68.6637931 L532.011424,49.9310345 C532.011424,46.7594121 532.121762,44.7601084 532.316832,43.9152299 C532.517252,43.0703514 532.882202,42.4702964 533.46211,42.1637931 C534.047344,41.851963 535.322017,41.7068966 537.203351,41.7068966 L537.737814,41.7068966 L537.737814,40.4123563 L520.405941,40.4123563 L520.405941,41.7068966 L521.398515,41.7068966 C523.325245,41.7068966 524.567911,41.9041223 525.139756,42.2399425 C525.71165,42.5784261 526.116694,43.18267 526.285034,44.0675287 C526.456062,44.9497192 526.51409,46.8900066 526.51409,49.9310345 L526.51409,57.545977 L506.509901,57.545977 L506.509901,49.9310345 C506.509901,46.7594121 506.614888,44.7601084 506.815308,43.9152299 C507.015729,43.0703514 507.443666,42.4702964 508.036938,42.1637931 C508.627523,41.851963 509.812504,41.7068966 511.701828,41.7068966 L512.465347,41.7068966 L512.465347,40.4123563 L495.057121,40.4123563 Z M618.747144,40.4123563 L618.747144,41.7068966 C620.609763,41.7068966 621.829463,41.8721445 622.412034,42.2399425 C622.991941,42.6024138 623.396985,43.2241757 623.557312,44.1436782 C623.722989,45.0631831 623.786367,47.020601 623.786367,49.9310345 L623.786367,68.6637931 C623.786367,71.8594056 623.706986,73.8986847 623.557312,74.6795977 C623.404999,75.4578448 623.041588,76.0742726 622.488385,76.5833333 C621.935231,77.0897282 620.786508,77.3448276 618.899848,77.3448276 L618.059977,77.3448276 L618.059977,78.6393678 L649.66965,78.6393678 L650.50952,66.7600575 L649.211538,66.7600575 C648.532776,69.6225156 647.559675,71.8567422 646.386519,73.4612069 C645.213364,75.0710057 644.012331,76.1169187 642.72163,76.5833333 C641.420228,77.049748 639.771003,77.2686782 637.758759,77.2686782 L634.93374,77.2686782 C632.373668,77.2686782 630.785182,76.8471905 630.199924,76.0502874 C629.617353,75.2533842 629.360029,72.5801568 629.360053,68.0545977 L629.360053,58.9928161 L633.483054,58.9928161 C635.113173,58.9928161 636.30844,59.1550156 636.99524,59.3735632 C637.679353,59.5894474 638.166881,60.0219762 638.522277,60.7442529 C638.877698,61.4718612 639.056716,62.8870977 639.05674,65.0086207 L640.354722,65.0086207 L640.354722,51.987069 L639.05674,51.987069 C639.05674,53.860725 638.91012,55.1495534 638.674981,55.7945402 C638.439817,56.4421905 637.959155,56.9215542 637.224296,57.2413793 C636.486749,57.5612069 635.182243,57.6982759 633.33035,57.6982759 L629.360053,57.6982759 L629.360053,41.7068966 L634.628332,41.7068966 C637.28462,41.7068966 639.154886,41.8732849 640.354722,42.1637931 C641.551919,42.4569696 642.613955,43.1057627 643.485149,44.2198276 C644.350966,45.3365607 645.100754,47.268468 645.699353,49.9310345 L646.997334,49.9310345 L646.081112,40.4123563 L618.747144,40.4123563 Z M377.627951,40.4885057 L377.627951,41.783046 C379.696317,41.783046 380.999674,41.9574245 381.598248,42.2399425 C382.196847,42.5224557 382.620972,43.1495468 382.89623,44.1436782 C383.171463,45.1378095 383.354341,47.0727652 383.354341,50.0071839 L383.354341,70.3390805 C383.354341,72.6498342 383.225313,74.0585985 383.048934,74.6795977 C382.869892,75.297931 382.325875,75.8926617 381.369193,76.4310345 C380.415198,76.9694121 379.060703,77.2877119 377.246192,77.420977 L377.246192,78.7155172 L391.447639,78.7155172 L391.447639,77.420977 C389.42203,77.420977 387.955659,77.1670205 386.942879,76.5833333 C385.930074,76.002312 385.253218,75.3778843 385.034082,74.6795977 C384.817634,73.9839721 384.728675,72.5378933 384.728675,70.3390805 L384.728675,43.762931 L411.986291,79.6293103 L413.131569,79.6293103 L413.131569,47.9511494 C413.131569,46.3146971 413.262161,45.2120509 413.513328,44.5244253 C413.76452,43.8394606 414.350145,43.1845755 415.269421,42.6968391 C416.194024,42.2091026 417.483625,41.9163111 419.087014,41.783046 L419.087014,40.4885057 L405.267327,40.4885057 L405.267327,41.783046 C406.774525,41.783046 408.013331,41.9977874 409.08492,42.3922414 C410.159197,42.7866954 410.87539,43.317078 411.222772,43.9913793 C411.570179,44.6710123 411.757235,45.8806453 411.757235,47.5704023 L411.757235,70.4152299 L389.080731,40.4885057 L377.627951,40.4885057 Z M220.801219,41.1738506 C225.469753,41.1738506 229.034628,42.8023054 231.49048,45.9712644 C233.946337,49.1402233 235.155372,53.6558842 235.155369,59.6020115 C235.155369,65.7160476 233.904728,70.29872 231.414128,73.3850575 C228.918184,76.4713925 225.553735,78.0301724 221.25933,78.0301724 C216.360975,78.0301724 212.712497,76.4713925 210.264661,73.3850575 C207.816823,70.29872 206.599776,65.7533645 206.599772,59.6020115 C206.599772,53.5439434 207.816818,48.9132931 210.264661,45.8189655 C212.712502,42.724633 216.202168,41.173853 220.801219,41.1738506 Z M809.474105,41.1738506 C814.142637,41.1738506 817.707475,42.8023054 820.163366,45.9712644 C822.62456,49.1402233 823.828231,53.6558842 823.828256,59.6020115 C823.828256,65.7160476 822.577576,70.29872 820.087014,73.3850575 C817.591054,76.4713925 814.223997,78.0301724 809.932216,78.0301724 C805.033872,78.0301724 801.309049,76.4713925 798.861196,73.3850575 C796.413367,70.29872 795.196306,65.7533645 795.196306,59.6020115 C795.196306,53.5439434 796.413367,48.9132931 798.861196,45.8189655 C801.309049,42.724633 804.875084,41.173853 809.474105,41.1738506 Z M260.733244,41.4022989 C265.193342,41.4022989 268.106538,42.2212865 269.437357,43.8390805 C270.765513,45.4568768 271.422506,47.622564 271.422506,50.3117816 C271.422506,51.8576149 271.201855,53.1399688 270.811691,54.1954023 C270.418863,55.2481675 269.887088,56.1368349 269.208302,56.7844828 C268.52954,57.4347989 267.634305,57.8955041 266.535986,58.2313218 C265.440331,58.5698054 264.130524,58.763225 262.642041,58.8405172 C261.153558,58.9151437 259.761291,58.9581675 258.366337,58.9928161 L258.366337,41.4784483 C259.258884,41.4011584 260.043781,41.4022989 260.733244,41.4022989 Z M559.345392,46.9612069 L566.064356,63.1048851 L552.70278,63.1048851 L559.345392,46.9612069 Z M350.828446,47.0373563 L357.547411,63.2571839 L344.109482,63.2571839 L350.828446,47.0373563 Z M683.188119,51.0732759 C687.087024,56.1532028 691.767747,62.7553555 697.16051,70.9482759 C694.122097,74.4743744 690.810356,76.2787356 687.234768,76.2787356 C684.014625,76.2787356 681.080074,74.8916757 678.530655,72.0905172 C675.98126,69.2920271 674.713062,66.2525197 674.713062,63.1048851 C674.713062,61.0633202 675.44946,58.9726371 676.927266,56.7844828 C678.397058,54.5963309 680.499776,52.7097282 683.188119,51.0732759 Z M837.800647,71.4051724 C836.648895,71.4051724 835.643298,71.80267 834.822925,72.6235632 C833.997176,73.444454 833.60127,74.4473432 833.601295,75.5933908 C833.601295,76.718119 834.013179,77.7156765 834.822925,78.5632184 C835.629958,79.4107603 836.627541,79.7816068 837.800647,79.7816092 C838.952424,79.7816092 839.94192,79.3814434 840.77837,78.5632184 C841.614796,77.7396617 841.999976,76.766092 842,75.5933908 C842,74.4473432 841.598743,73.4444516 840.77837,72.6235632 C839.949934,71.8026724 838.979178,71.4051724 837.800647,71.4051724 Z" id="path29" fill="#000000" fill-rule="nonzero"></path>
            <rect id="rect2666" x="0" y="0" width="880" height="110"></rect>
        </g>
    </g>
</svg>